<?xml version="1.0" encoding="UTF-8"?>
<!DOCTYPE svg PUBLIC "-//W3C//DTD SVG 1.1//EN" "http://www.w3.org/Graphics/SVG/1.1/DTD/svg11.dtd">
<svg version="1.1" xmlns="http://www.w3.org/2000/svg" xmlns:xlink="http://www.w3.org/1999/xlink" x="0" y="0" width="1082" height="867" viewBox="0, 0, 1082, 867">
  <g id="Layer_1">
    <path d="M682.007,487.57 C685.242,399.925 599.136,376.015 530.144,379.14 C486.339,381.125 455.097,395 425.441,428.097 C408.468,447.039 388.535,491.687 410.968,512.988 C422.265,523.71 449.875,524.168 464.636,532.945 C481.117,542.742 496.218,555.796 501.507,574.968 C509.746,604.843 517.343,628.757 539.507,649.07 C565.265,672.687 586.109,677.14 590.804,695.937 C593.339,706.07 589.539,723.804 581.937,740.273 C571.468,762.96 560.957,775.933 547.738,779.539 C519.871,787.14 500.875,825.14 516.074,837.804 C526.523,845.406 536.656,842.871 547.105,836.218 C563.257,840.023 566.105,840.023 580.355,832.421 C589.855,840.023 603.156,839.07 613.605,830.523 C627.539,841.601 651.605,840.968 655.406,827.671 C657.531,820.234 661.105,804.871 664.906,783.968 C669.324,759.671 683.152,744.925 687.707,736.468 C701.007,711.773 708.605,696.57 695.304,669.968 C673.542,626.445 680.195,536.664 682.007,487.57" fill="#D2A76E"/>
    <path d="M664.414,788.011 C664.214,783.125 662.773,779.449 659.257,778.269 C649.265,774.914 640.66,787.086 631.687,788.554 C637.527,771.554 609.554,779.449 603.726,786.757 C603.578,768.457 578.546,780.296 570.82,786.976 C569.601,769.031 535.421,783.062 528.382,788.671 C517.367,797.433 500.375,826.378 516.078,837.808 C526.527,845.406 536.656,842.867 547.105,836.218 C563.257,840.023 566.105,840.023 580.355,832.421 C589.855,840.023 603.156,839.07 613.605,830.523 C627.539,841.601 645.968,839.312 657.601,831.828 C669.796,823.984 664.918,800.406 664.414,788.011" fill="#E8C486"/>
    <path d="M682.007,487.57 C685.242,399.925 599.136,376.015 530.144,379.14 C486.339,381.125 455.097,395 425.441,428.097 C408.468,447.039 388.535,491.687 410.968,512.988 C422.265,523.71 441.773,545.289 456.539,554.07 C501.074,580.539 507.625,607.554 559.14,630.07 C578.64,638.593 615.285,631.179 635.14,640.203 C679.117,660.195 687.96,714.062 670.605,758.003 C688.339,741.539 711.14,702.269 695.304,669.968 C673.886,626.273 680.195,536.664 682.007,487.57" fill="#C09763"/>
    <path d="M409.671,512.906 C446.437,521.355 491.507,538.734 501.507,574.968 C509.746,604.843 517.343,628.757 539.507,649.07 C565.265,672.687 586.109,677.14 590.804,695.937 C593.339,706.07 589.539,723.804 581.937,740.273 C571.468,762.96 560.957,775.933 547.738,779.539 C519.871,787.14 500.875,825.14 516.074,837.804 C526.523,845.406 536.656,842.871 547.105,836.218 C563.257,840.023 566.105,840.023 580.355,832.421 C589.855,840.023 603.156,839.07 613.605,830.523 C627.539,841.601 659.8,837.125 663.601,823.828 C665.726,816.39 669.601,799.914 669.601,783.828 C669.601,767.828 683.152,744.925 687.707,736.468 C701.007,711.773 708.605,696.57 695.304,669.968 C673.542,626.445 680.195,536.664 682.007,487.57 C683.421,449.164 655.406,419.171 630.707,384.968 M573.074,789.671 C560.406,797.273 546.476,801.07 547.105,834.32 M603.476,789.671 C595.874,797.273 580.671,797.273 580.355,831.468 M635.14,790.937 C627.539,798.539 614.874,797.273 614.554,829.57" fill-opacity="0" stroke="#1A1919" stroke-width="5.669" stroke-linecap="round" stroke-linejoin="round"/>
    <path d="M1052.07,451.16 C1048.64,453.527 1052.81,470.882 1044.91,478.07 C1034.34,487.687 1018.05,494.003 1005.01,497.07 C972.707,504.671 920.421,490.64 898.605,479.968 C859.773,460.976 789.464,424.835 809.304,371.671 C828.718,381.492 847.304,403.968 870.105,422.968 C885.265,435.605 911.218,455.5 929.007,462.871 C965.246,477.882 1016.41,485.671 1052.07,451.16" fill="#D2A76E"/>
    <path d="M949.761,491.039 C921.164,495.812 873.515,469 850.312,452.945 C836.636,443.476 822.429,432.253 814.023,417.578 C811.644,413.421 803.828,368.898 809.304,371.671 C828.718,381.492 851.109,428.671 873.906,447.671 C892.394,463.078 894.804,459.07 915.707,474.273 C925.019,481.042 943.101,482.992 949.761,491.039" fill="#C09763"/>
    <path d="M1052.07,451.16 C1048.64,453.527 1052.81,470.882 1044.91,478.07 C1034.34,487.687 1018.05,494.003 1005.01,497.07 C972.707,504.671 920.421,490.64 898.605,479.968 C859.773,460.976 789.464,424.835 809.304,371.671 C828.718,381.492 847.304,403.968 870.105,422.968 C885.265,435.605 911.218,455.5 929.007,462.871 C965.246,477.882 1016.41,485.671 1052.07,451.16 z" fill-opacity="0" stroke="#1A1919" stroke-width="5.669" stroke-linecap="round" stroke-linejoin="round"/>
    <path d="M852.843,494.406 C846.953,533.945 822.972,560.98 780.074,570.976 C754.32,576.972 763.144,611.25 737.105,612.968 C700.687,615.382 682.953,580.117 645.906,578.773 C604.89,577.281 544.519,598.796 486.304,601.57 C406.507,605.371 357.746,568.386 298.207,571.171 C243.628,573.722 154.632,585.187 152.542,516.144 C148.402,379.187 281.093,189.984 404.605,238.671 C447.265,255.484 483.386,308.035 524.304,314.671 C594.605,326.07 644.007,327.968 712.406,323.539 C731.339,322.312 759.132,331.332 775.601,337.828 C848.265,366.492 853.703,415.8 854.273,472.437 C854.351,480.132 853.874,487.46 852.843,494.406" fill="#D2A76E"/>
    <path d="M753.82,570.281 C758.597,576.414 760.726,584.175 758.07,594.703 C745.593,644.171 671.691,579.71 645.906,578.773 C604.89,577.281 544.519,598.796 486.3,601.57 C392.289,606.046 470.957,557.097 471.738,499.601 C493.601,530.492 471.996,561.382 498.937,570.492 C520.804,577.89 622.738,574.453 637.601,555.828 C648.121,542.648 655.355,529.847 622.937,502.492 C645.601,501.164 702.882,540.613 720,549.003 C732.265,555.019 746.308,560.64 753.82,570.281" fill="#C09763"/>
    <path d="M852.843,494.406 C846.953,533.945 822.972,560.98 780.074,570.976 C754.32,576.972 763.144,611.25 737.105,612.968 C700.687,615.382 682.953,580.117 645.906,578.773 C604.89,577.281 544.519,598.796 486.304,601.57 C406.507,605.371 357.746,568.386 298.207,571.171 C243.628,573.722 154.632,585.187 152.542,516.144 C148.402,379.187 287.429,214.05 410.937,262.738 C453.593,279.554 489.085,308.035 530.007,314.671 C600.304,326.07 658.962,326.906 693.601,323.828 C752.066,318.632 798.531,340.753 828.265,370.492 C849.601,391.828 853.703,415.8 854.273,472.437 C854.351,480.132 853.874,487.46 852.843,494.406 z" fill-opacity="0" stroke="#1A1919" stroke-width="5.669" stroke-linecap="round" stroke-linejoin="round"/>
    <path d="M438.804,603.468 C469.207,555.336 509.484,475.554 444.437,429.742 C422.093,414.007 369.89,414.593 344.828,420.308 C280.074,435.07 297.652,526.039 300.671,573.132 C304.343,630.414 310.632,685.058 300.105,742.179 C295.546,766.91 282.371,785.875 261.472,799.171 C251.062,805.796 240.109,833.992 246.906,846.671 C248.855,850.312 265.273,853.64 276.039,848.57 C283.007,855.539 307.074,856.171 314.671,847.304 C323.539,854.273 344.437,854.906 348.875,847.937 C356.418,849.824 379.468,853.097 386.238,842.871 C395.382,829.058 394.203,816.187 395.105,808.671 C398.906,777.003 396.16,792.71 402.707,753.57 C411.984,698.07 414.851,641.398 438.804,603.468" fill="#D2A76E"/>
    <path d="M382.375,788.578 C375.007,789.566 367.468,796.847 361.734,800.289 C359.343,782.226 333.734,793.093 332.632,804.757 C334.761,782.195 303.214,794.628 294.66,802.207 C297.515,778.496 262.625,795.058 255.621,803.57 C247.8,813.078 240.699,835.089 246.906,846.671 C248.855,850.312 265.273,853.64 276.039,848.57 C283.007,855.539 307.074,856.171 314.671,847.304 C323.539,854.273 344.437,854.906 348.875,847.937 C363.816,851.671 379.257,851.96 388.824,838.921 C395.648,829.613 401.031,801.265 392.273,792.238 C389.14,789.007 385.777,788.121 382.375,788.578" fill="#E8C486"/>
    <path d="M401.601,567.828 C417.5,540.328 442.437,527.054 453.601,497.164 C466.226,463.359 465.117,416.476 457.32,381.632 C476.953,384.187 501.437,382.96 515.117,366.73 C497.843,366.761 478.687,356.023 473.539,338.203 C473.375,337.632 511.742,352.703 514.57,354.332 C512.695,341.656 506.125,332.796 499.859,322.601 C509.781,322 522.753,324.789 529.812,318.851 C504.636,314.121 485.078,298.46 460.218,295.976 C439.011,293.859 413.945,293.292 393.175,299.05 C356.429,309.238 336.296,318.39 324.246,356.46 C318.144,375.734 320.195,394.804 317.339,414.335 C314.75,432.046 305.421,447.058 301.546,465.14 C293.96,500.531 300.984,538.621 303.273,574.336 C306.285,621.312 306.429,685.953 304.539,732.671 C322.273,712.406 314.671,649.07 324.804,630.07 C325.418,639.57 338.835,638.507 344.699,642.406 C345.359,629.843 343.199,616.546 348.183,604.96 C345.242,611.792 375.98,637.593 381.648,640.039 C374.207,593.336 395.039,579.179 401.601,567.828" fill="#C09763"/>
    <g>
      <path d="M299.472,500.871 C295.671,607.273 317.839,645.906 300.105,742.171 C295.55,766.906 281.769,784.964 261.472,799.171 C242.472,812.468 240.109,833.992 246.906,846.671 C248.855,850.312 265.273,853.64 276.039,848.57 C283.007,855.539 307.074,856.171 314.671,847.304 C323.539,854.273 344.437,854.906 348.875,847.937 C356.418,849.824 379.468,853.097 386.238,842.871 C395.382,829.058 394.203,816.187 395.105,808.671 C398.906,777.003 396.16,792.71 402.707,753.57 C411.984,698.07 414.105,664.906 428.671,622.468 C435.769,601.796 489.601,541.164 468.265,485.164" fill-opacity="0" stroke="#1A1919" stroke-width="5.669" stroke-linecap="round" stroke-linejoin="round"/>
      <path d="M80.972,859.336 C72.104,863.773 57.222,865.039 51.839,859.336 C44.491,851.554 56.905,818.171 71.155,809.621 C79.995,804.316 83.526,808.312 102.507,791.57 C118.656,777.32 123.843,755.847 127.207,738.371 C136.707,688.968 136.707,676.937 129.738,626.269 C125.191,593.195 96.647,442.156 134.808,424.238 C168.937,408.21 247.531,417.125 258.937,455.273 C275.777,511.589 241.316,630.16 238.671,652.871 C234.015,692.933 224.796,726.39 220.937,766.871 C219.039,786.82 220.304,801.07 210.804,825.773 C203.308,845.265 199.175,853.64 189.906,858.07 C182.625,861.554 163.937,864.406 153.804,857.437 C140.507,863.14 125.937,864.406 119.605,855.539 C110.738,866.308 91.104,866.304 80.972,859.336" fill="#D2A76E"/>
      <path d="M80.972,859.336 C72.104,863.773 57.222,865.039 51.831,859.332 C44.483,851.515 51.155,830.785 55.71,823 C61.519,813.062 97.991,790.734 105.335,806.375 C116.097,799.781 136.074,789.671 143.894,807.242 C144.937,809.586 182.683,787.675 181.585,808.234 C181.89,802.468 202.98,798.058 207.261,799.808 C218.988,804.601 213.328,817.453 211.062,827.007 C205.726,849.472 176.242,872.859 153.804,857.437 C140.507,863.14 125.937,864.406 119.605,855.539 C110.738,866.308 91.104,866.304 80.972,859.336" fill="#E8C486"/>
    </g>
    <path d="M220.808,781.175 C221.808,766.195 215.437,757.593 210.816,744.195 C199.507,711.394 205.906,670.714 218.25,639.039 C211.496,646.195 202.949,660 194.5,664.164 C196.964,646.367 194.05,633.281 186.39,617.5 C181.41,628.546 168.054,646.121 156.464,651.406 C161.562,642.312 159.742,617.21 152.785,610.25 C149.265,622.25 140.703,629.586 138.359,642.609 C124.988,633.777 126.531,612.593 126.652,598.933 C126.789,584.14 120.496,568.918 122.14,554.054 C125.007,528.195 140.832,505.773 154.859,484.851 C164.585,470.343 170.418,449.601 181.867,437.179 C205.761,411.265 248.925,421.753 258.941,455.285 C275.773,511.609 241.316,630.16 238.671,652.871 C236.187,674.242 229.66,693.687 225.64,714.273 C221.351,736.234 226.785,759.589 220.808,781.175" fill="#C09763"/>
    <path d="M80.972,859.336 C72.104,863.773 57.222,865.039 51.839,859.336 C44.491,851.554 56.905,818.171 71.155,809.621 C79.995,804.316 83.526,808.312 102.507,791.57 C118.656,777.32 123.843,755.847 127.207,738.371 C136.707,688.968 132.273,678.203 128.472,625.003 C126.093,591.703 96.647,442.156 134.808,424.238 C168.937,408.21 247.531,417.125 258.937,455.273 C275.777,511.589 241.316,630.16 238.671,652.871 C234.015,692.933 224.796,726.39 220.937,766.871 C219.039,786.82 220.304,801.07 210.804,825.773 C203.308,845.265 199.175,853.64 189.906,858.07 C182.625,861.554 163.937,864.406 153.804,857.437 C140.507,863.14 125.937,864.406 119.605,855.539 C110.738,866.308 91.104,866.304 80.972,859.336 z" fill-opacity="0" stroke="#1A1919" stroke-width="5.669" stroke-linecap="round" stroke-linejoin="round"/>
    <path d="M854.906,474.273 C856.617,427.945 846.898,386.894 808.265,369.164 C772.531,352.757 723.07,350.242 685.152,355.789 C635.164,363.093 584.289,378.546 575.425,436.371 C569.562,474.593 603.023,488.761 633.601,505.164 C667.734,523.468 673.218,541.921 683.906,580.675 C692.148,610.546 704.054,633.074 729.507,649.07 C751.671,663.003 771.73,662.086 780.804,681.371 C785.874,692.14 787.14,718.738 775.738,745.336 C765.894,768.308 739.007,765.601 727.605,784.601 C722.742,792.71 708.605,821.336 718.105,828.621 C728.554,836.218 741.855,835.273 752.304,828.621 C768.457,832.421 771.304,832.421 785.554,824.82 C795.054,832.421 808.355,831.468 818.804,822.921 C836.855,827.671 848.921,829.851 858.707,820.07 C866.304,812.468 865.039,801.703 866.937,783.336 C868.742,765.914 875.562,748.484 877.074,739.003 C881.445,711.539 891.96,701.687 892.273,666.804 C892.464,645.39 873.406,615.148 863.14,599.671 C836.789,559.945 853.093,523.367 854.906,474.273" fill="#D2A76E"/>
    <path d="M865.671,778.269 C858.156,763.71 851.515,759.445 837.804,775.734 C835.05,763.25 813.515,760.703 802.339,773.203 C790.937,763.07 780.804,764.336 768.14,777.003 C771.511,756.695 741.539,768.136 730.906,782.648 C724.164,791.847 705.257,818.726 718.105,828.621 C728.554,836.218 741.855,835.273 752.304,828.621 C768.457,832.421 771.304,832.421 785.554,824.82 C795.054,832.421 808.355,831.468 818.804,822.921 C836.855,827.671 854.882,833.367 858.707,820.07 C863.253,804.257 869.085,784.875 865.671,778.269" fill="#E8C486"/>
    <path d="M620.265,501.164 C657.031,509.609 673.906,544.429 683.906,580.671 C692.148,610.542 704.054,633.074 729.507,649.07 C751.671,663.003 771.73,662.086 780.804,681.371 C785.874,692.14 787.14,718.738 775.738,745.336 C765.894,768.308 739.007,765.601 727.605,784.601 C722.742,792.71 708.605,821.336 718.105,828.621 C728.554,836.218 741.855,835.273 752.304,828.621 C768.457,832.421 771.304,832.421 785.554,824.82 C795.054,832.421 808.355,831.468 818.804,822.921 C836.855,827.671 848.921,829.851 858.707,820.07 C866.304,812.468 865.039,801.703 866.937,783.336 C868.742,765.914 875.562,748.484 877.074,739.003 C881.445,711.539 891.96,701.687 892.273,666.804 C892.464,645.39 873.406,615.148 863.14,599.671 C836.789,559.945 850.374,523.187 854.906,474.273 C857.601,445.164 849.601,413.164 845.601,397.164" fill-opacity="0" stroke="#1A1919" stroke-width="5.669" stroke-linecap="round" stroke-linejoin="round"/>
    <g>
      <path d="M1069.61,402.07 C1078.41,416.351 1086.71,453.371 1065.81,468.57 C1049.67,480.312 1031.43,478.046 1018.1,459.722 C1007.53,445.179 1007.42,399.804 1009.2,382.195 C1012.84,383.515 1023.56,398.351 1027.81,400.171 C1029.99,385.707 999.304,356.468 1021.41,344.71 C1031.61,371.671 1053.98,376.714 1069.61,402.07" fill="#9E7E61"/>
      <path d="M1070.31,418.39 C1078.92,435.57 1085.55,454.21 1065.81,468.57 C1049.67,480.308 1031.44,478.05 1018.11,459.738 C1008.43,446.437 1008.22,427.25 1009.16,411.734 C1026.76,422.117 1029.75,482.82 1043.39,434.523 C1049.61,439.882 1050.75,448.605 1059.79,449.277 C1064.61,428.593 1063.82,412.109 1058.6,393.187 C1060.64,400.613 1065.75,409.296 1070.31,418.39" fill="#8C7056"/>
      <path d="M1069.61,402.07 C1078.41,416.351 1086.71,453.371 1065.81,468.57 C1049.67,480.312 1031.43,478.046 1018.1,459.722 C1007.53,445.179 1007.42,399.804 1009.2,382.195 C1012.84,383.515 1023.56,398.351 1027.81,400.171 C1029.99,385.707 999.304,356.468 1021.41,344.71 C1031.61,371.671 1053.98,376.714 1069.61,402.07 z M81.605,858.07 C82.554,834.32 93.007,820.07 106.304,812.468 M118.656,855.218 C117.707,836.218 119.605,822.921 140.507,813.421 M153.171,856.804 C157.605,820.07 167.105,817.218 176.605,810.57 M293.773,806.773 C281.738,818.804 276.039,834.64 276.039,847.937 M328.605,805.507 C312.695,815.55 313.406,834.003 313.406,847.304 M360.906,802.968 C344.996,813.015 348.871,834.003 348.871,847.304 M765.605,784.921 C758.007,792.523 748.507,797.273 752.304,826.718 M801.707,782.07 C794.105,789.671 781.757,794.421 785.554,823.871 M832.105,782.07 C824.507,789.671 815.957,792.523 819.757,821.968" fill-opacity="0" stroke="#1A1919" stroke-width="5.669" stroke-linecap="round" stroke-linejoin="round"/>
      <path d="M142.703,608.007 C126.792,609.652 119.316,585.343 115.417,568.191 C105.027,582.89 101.781,591.468 101.781,606.171 C88.136,598.82 81.64,585.343 78.394,549.203 C70.601,565.742 74.714,576.148 70.601,591.468 C53.062,573.093 56.96,549.203 45.265,517.96 C43.202,547.523 51.116,563.906 29.679,576.769 C35.523,517.96 4.952,523.031 1.601,435.828 C-0.399,383.828 32.96,180.273 48.265,143.828 C76.265,77.163 144.265,-44.173 210.937,38.491 C273.601,-50.837 350.023,49.94 388.265,117.164 C416.843,167.39 438.726,221.968 452.539,249.656 C462.933,270.484 492.218,298.019 518.796,308.46 C505.156,317.648 486.32,311.527 464.234,302.953 C487.617,323.781 507.753,336.64 514.25,359.914 C503.816,349.664 481.097,337.382 467.484,346.441 C466.257,364.828 484.519,376.914 506.453,377.07 C473.976,391.16 469.296,394.941 438.902,370.945 C458.386,470.179 442.792,497.742 411.617,540.007 C394.226,563.589 372.644,573.093 370.695,609.847 C356.292,594.519 355.937,570.984 355.109,562.062 C341.468,571.25 325.875,587.796 331.722,619.039 C314.183,619.039 309.64,606.781 304.441,582.277 C296.21,591.039 290.8,600.656 286.906,622.71 C272.503,616.14 265.73,604.539 267.418,587.796 C255.453,599.539 253.945,621.648 259.621,639.25 C244.875,639.25 236.234,630.062 226.492,595.144 C220.648,619.039 218.703,620.871 205.058,631.898 C207.007,617.195 203.109,600.656 188.168,577.992 C186.632,583.851 177.058,616.722 166.085,619.648 C171.57,597.75 162.664,578.851 151.796,571.867 C147.16,586.933 143.265,592.484 142.703,608.007" fill="#8C7056"/>
    </g>
    <path d="M191.418,538.179 C178.835,548.066 179.324,558.726 175.828,571.25 C158.691,560.5 146.96,522.23 128.867,515.828 C128.269,524.238 128.144,533.039 128.593,541.597 C99.827,523.476 80.687,502.953 80.147,487.179 C80.577,499.742 81.706,512.554 78.421,524.867 C72.605,512.507 58.851,507.25 52.648,494.429 C45.671,480.007 45.937,462.398 47.21,446.972 C37.608,457.41 33.886,485.335 35.601,499.828 C24.198,471.328 13.222,442.289 15.601,413.828 C18.218,382.617 39.034,345.531 49.601,315.828 C44.855,321.386 32.577,345.773 25.601,347.828 C38.546,302.125 35.843,229.257 54.937,189.164 C73.937,149.261 80.937,117.828 104.937,91.827 C114.265,81.718 144.937,45.163 175.601,54.491 C175.601,45.163 159.25,42.226 155.601,39.163 C174.062,37.71 191.273,39.663 206.937,57.163 C215.25,43.218 229.601,35.827 249.601,27.163 C244.937,33.163 238.835,42.48 239.136,47.687 C257.289,41.499 276.125,36.804 295.601,44.491 C313.882,51.71 338.078,73.116 346.265,89.827 C354.867,107.375 373.726,140.898 378.937,146.492 C391.312,159.781 394.945,168.445 401.875,185.335 C415.148,217.707 426.035,234.375 444.582,264.171 C436.253,261.21 427.117,255.292 419.765,251.738 C425.168,267.562 429.824,293.46 450.632,298.867 C440.089,301.789 425.804,302.8 415.914,299.46 C412.843,315.828 433.429,337.168 444.164,349.015 C431.839,348.523 421.832,340.75 409.964,339.992 C425.257,370.945 425.746,381.972 429.156,400.351 C430.714,408.75 427.914,448.992 433.054,455.476 C429.39,450.859 413.066,428.39 408.894,423.265 C408.625,441.73 411.828,464.601 405.773,494.07 C398.906,527.468 383.707,538.871 371.933,559.578 C372.937,550.273 374.207,541.406 366.066,523.984 C356.132,537.914 340.152,550.507 328.742,563.828 C331.14,546.468 326.71,541.921 326.074,526.203 C290.23,555.921 295.671,555.336 284.273,588.273 C269.074,565.468 268.351,560.093 266.539,551.539 C261.101,556.964 251.328,568.121 248.804,576.871 C243.5,568.281 244.578,545.742 243.738,536.336 C239.718,537.156 212.003,562.742 214.605,568.003 C202.339,543.246 203.109,528.984 191.418,538.179" fill="#9E7E61"/>
    <path d="M142.703,608.007 C126.792,609.652 119.316,585.343 115.417,568.191 C105.027,582.89 101.781,591.468 101.781,606.171 C88.136,598.82 81.64,585.343 78.394,549.203 C70.601,565.742 74.714,576.148 70.601,591.468 C53.062,573.093 56.96,549.203 45.265,517.96 C43.202,547.523 51.116,563.906 29.679,576.769 C35.523,517.96 9.687,526.906 3.601,449.828 C-2.399,373.828 28.425,205.097 41.601,167.828 C70.179,86.968 144.265,-45.509 210.937,37.163 C274.937,-54.837 356.484,62.374 394.73,129.593 C423.308,179.824 438.726,221.968 452.539,249.656 C462.933,270.484 492.218,298.019 518.796,308.46 C505.156,317.648 486.32,311.527 464.234,302.953 C487.617,323.781 507.753,336.64 514.25,359.914 C503.816,349.664 481.097,337.382 467.484,346.441 C466.257,364.828 484.519,376.914 506.453,377.07 C473.976,391.16 469.296,394.941 438.902,370.945 C458.386,470.179 442.792,497.742 411.617,540.007 C394.226,563.589 372.644,573.093 370.695,609.847 C356.292,594.519 355.937,570.984 355.109,562.062 C341.468,571.25 325.875,587.796 331.722,619.039 C314.183,619.039 309.64,606.781 304.441,582.277 C296.21,591.039 290.8,600.656 286.906,622.71 C272.503,616.14 265.73,604.539 267.418,587.796 C255.453,599.539 253.945,621.648 259.621,639.25 C244.875,639.25 236.234,630.062 226.492,595.144 C220.648,619.039 218.703,620.871 205.058,631.898 C207.007,617.195 203.109,600.656 188.168,577.992 C186.632,583.851 177.058,616.722 166.085,619.648 C171.57,597.75 162.664,578.851 151.796,571.867 C147.16,586.933 143.265,592.484 142.703,608.007 z" fill-opacity="0" stroke="#1A1919" stroke-width="5.669" stroke-linecap="round" stroke-linejoin="round"/>
    <path d="M337.601,253.828 C336.601,292.828 292.875,370.535 274.824,392.859 C266.621,403.007 156.367,405.82 140.292,378.453 C126.64,355.203 88.179,281.445 96.483,245.734 C100.726,227.468 108.843,221.46 115.601,207.828 C120.949,197.039 125.367,165.984 131.601,152.828 C140.601,133.828 155.523,124.75 166.265,125.164 C183.601,125.828 182.937,139.164 194.148,143.253 C196.601,133.828 202.042,125.195 208.937,116.492 C210.265,131.828 216.214,142.039 226.937,144.496 C231.179,127.246 247.996,121.828 253.601,121.828 C269.601,121.828 283.601,132.828 291.601,156.828 C298.585,177.773 305.601,199.828 315.601,210.828 C328.414,224.921 338.039,236.718 337.601,253.828" fill="#D2A76E"/>
    <path d="M337.601,253.828 C336.601,292.828 292.875,370.535 274.824,392.859 C266.621,403.007 156.367,405.82 140.292,378.453 C126.64,355.203 88.179,281.445 96.483,245.734 C100.726,227.468 108.843,221.46 115.601,207.828 C120.949,197.039 125.367,165.984 131.601,152.828 C140.601,133.828 155.523,124.75 166.265,125.164 C183.601,125.828 182.937,139.164 194.148,143.253 C196.601,133.828 202.042,125.195 208.937,116.492 C210.265,131.828 216.214,142.039 226.937,144.496 C231.179,127.246 247.996,121.828 253.601,121.828 C269.601,121.828 283.601,132.828 291.601,156.828 C298.585,177.773 305.601,199.828 315.601,210.828 C328.414,224.921 338.039,236.718 337.601,253.828 z" fill-opacity="0" stroke="#1A1919" stroke-width="5.669" stroke-linecap="round" stroke-linejoin="round"/>
    <path d="M290.75,347.199 C301.367,319.851 323.601,291.828 295.601,265.828 C271.289,243.253 228.601,254.828 205.601,265.828 C180.601,254.828 150.625,239.644 126.64,266.324 C108.304,286.726 119.054,318.289 129.671,341.531 C135.742,370.25 140.933,397.753 152.039,409.429 C166.191,424.312 191.449,426.179 205.601,401.828 C224.601,435.828 261.453,422.195 269.601,412.828 C284.101,396.164 284.378,374.593 290.75,347.199" fill="#EAC48B"/>
    <path d="M290.75,347.199 C301.367,319.851 323.601,291.828 295.601,265.828 C271.289,243.253 228.601,254.828 205.601,265.828 C180.601,254.828 150.625,239.644 126.64,266.324 C108.304,286.726 119.054,318.289 129.671,341.531 C135.742,370.25 140.933,397.753 152.039,409.429 C166.191,424.312 191.449,426.179 205.601,401.828 C224.601,435.828 261.453,422.195 269.601,412.828 C284.101,396.164 284.378,374.593 290.75,347.199 z M138.937,182.492 C146.269,154.492 174.937,157.828 182.937,192.492 M235.601,198.492 C243.945,166.359 276.41,160.21 284.265,185.828" fill-opacity="0" stroke="#1A1919" stroke-width="5.669" stroke-linecap="round" stroke-linejoin="round"/>
    <path d="M163.601,213.828 C173.601,213.828 171.656,229.46 164.601,229.828 C155.062,230.32 154.601,213.828 163.601,213.828" fill="#1A1919"/>
    <path d="M251.601,214.828 C260.128,214.726 262.101,230.828 250.601,230.828 C242.57,230.828 242.589,214.937 251.601,214.828" fill="#1A1919"/>
    <path d="M200.976,304.617 C195.593,320.015 197.625,355.687 203.601,370.828" fill="#EAC48B"/>
    <path d="M200.976,304.617 C195.593,320.015 197.625,355.687 203.601,370.828 M150.625,339.082 C153.382,353.957 170.937,371.828 202.265,371.828 C225.601,371.828 263.171,363.406 269.242,338.796" fill-opacity="0" stroke="#1A1919" stroke-width="5.669" stroke-linecap="round" stroke-linejoin="round"/>
    <path d="M185.46,235.828 C174.511,253.828 159.914,288.828 165.39,304.828 C171.093,321.492 243.585,312.41 242.937,298.828 C242.023,279.828 238.375,262.828 226.515,237.828" fill="#D2A76E"/>
    <path d="M185.46,235.828 C174.511,253.828 159.914,288.828 165.39,304.828 C171.093,321.492 243.585,312.41 242.937,298.828 C242.023,279.828 238.375,262.828 226.515,237.828" fill-opacity="0" stroke="#1A1919" stroke-width="5.669" stroke-linecap="round" stroke-linejoin="round"/>
    <path d="M178.101,318.828 C153.101,322.828 158.132,288.195 169.039,285.828 C179.96,283.46 180.898,294.828 200.058,296.828 C218.414,298.742 228.335,285.828 236.546,289.828 C249.898,296.332 245.601,328.828 219.101,321.328 C204.601,328.828 189.601,326.828 178.101,318.828" fill="#9E7E61"/>
    <path d="M178.101,318.828 C153.101,322.828 158.132,288.195 169.039,285.828 C179.96,283.46 180.898,294.828 200.058,296.828 C218.414,298.742 228.335,285.828 236.546,289.828 C249.898,296.332 245.601,328.828 219.101,321.328 C204.601,328.828 189.601,326.828 178.101,318.828 z" fill-opacity="0" stroke="#1A1919" stroke-width="5.669" stroke-linecap="round" stroke-linejoin="round"/>
    <path d="M192.378,179.441 C197.14,185.339 197.332,190.601 197.332,195.675" fill="#D2A76E"/>
    <path d="M192.378,179.441 C197.14,185.339 197.332,190.601 197.332,195.675" fill-opacity="0" stroke="#1A1919" stroke-width="5.669" stroke-linecap="round" stroke-linejoin="round"/>
    <path d="M221.394,197.031 C221.394,191.621 222.937,186.601 226.351,181.468" fill="#D2A76E"/>
    <path d="M221.394,197.031 C221.394,191.621 222.937,186.601 226.351,181.468 M60.265,290.597 C81.265,280.906 115.234,282.257 137.882,291.73 M72.784,329.566 C89.855,312.132 129.726,307.281 144.96,313.375 M72.772,259.261 C95.421,256.554 137.882,266.027 150.625,278.203 M362.937,290.375 C344.531,283.613 308.64,278.945 289.335,291.73 M357.273,320.14 C337.929,312.964 298.906,307.281 283.671,313.375 M356.566,258.921 C336.085,256.867 283.32,265.011 272.703,280.23" fill-opacity="0" stroke="#1A1919" stroke-width="5.669" stroke-linecap="round" stroke-linejoin="round"/>
    <path d="M329.148,151.699 C360.195,136.875 351.875,103.507 337.726,93.749 C321.613,82.624 301.57,89.566 290.562,105.878 C313.937,120.886 321.289,133.539 329.148,151.699" fill="#D2A76E"/>
    <path d="M327.453,140.25 C338.007,138.296 337.535,117.765 333.148,111.531 C328.304,104.632 312.265,99.421 306.187,108.382 C301.562,115.218 318.937,141.824 327.453,140.25" fill="#9E7E61"/>
    <path d="M329.148,151.699 C360.195,136.875 360.585,105.878 337.726,93.749 C320.32,84.515 301.57,89.566 290.562,105.878 C313.937,120.886 321.289,133.539 329.148,151.699 z M303.425,111.265 C315.148,95.054 353.445,113.964 326.289,140.914" fill-opacity="0" stroke="#1A1919" stroke-width="5.669" stroke-linecap="round" stroke-linejoin="round"/>
    <path d="M98.55,150.796 C74.167,129.695 82.671,105.484 97.03,96.007 C112.75,85.628 127.328,93.444 139.902,106.789 C117.179,118.636 106.406,132.64 98.55,150.796" fill="#D2A76E"/>
    <path d="M102.746,136.437 C100.882,136.253 97.05,130.945 95.808,129.71 C89.452,123.398 94.218,110.843 101.375,107.101 C106.921,104.207 126.417,104.886 127.359,112.906 C128.171,119.835 112.976,137.437 102.746,136.437" fill="#9E7E61"/>
    <path d="M98.55,150.796 C68.448,131.046 82.671,105.484 97.03,96.007 C112.75,85.628 135.613,93.312 139.902,106.789 C117.179,118.636 106.406,132.64 98.55,150.796 z M104.175,136.437 C84.171,120.265 107.031,94.655 128.468,110.828" fill-opacity="0" stroke="#1A1919" stroke-width="5.669" stroke-linecap="round" stroke-linejoin="round"/>
    <path d="M177.601,307.828 C177.601,312.097 177.363,315.921 178.601,319.828" fill="#9E7E61"/>
    <path d="M177.601,307.828 C177.601,312.097 177.363,315.921 178.601,319.828" fill-opacity="0" stroke="#1A1919" stroke-width="5.669" stroke-linecap="round" stroke-linejoin="round"/>
    <path d="M220.601,310.328 C221.792,313.718 220.968,318.125 219.101,321.328" fill="#9E7E61"/>
    <path d="M220.601,310.328 C221.792,313.718 220.968,318.125 219.101,321.328" fill-opacity="0" stroke="#1A1919" stroke-width="5.669" stroke-linecap="round" stroke-linejoin="round"/>
  </g>
</svg>
